<?xml version="1.0" encoding="utf-8"?>
<!-- Generator: Adobe Illustrator 24.3.0, SVG Export Plug-In . SVG Version: 6.00 Build 0)  -->
<svg version="1.1" id="Layer_1" xmlns="http://www.w3.org/2000/svg" xmlns:xlink="http://www.w3.org/1999/xlink" x="0px" y="0px"
	 viewBox="0 0 1080 1080" style="enable-background:new 0 0 1080 1080;" xml:space="preserve">
<style type="text/css">
	.st0{display:none;}
	.st1{fill:#FFFFFF;}
	.st2{display:inline;fill:#FFFFFF;}
</style>
<path class="st0" d="M1080,162.1v216l-540.1,216l-540.1-216v-216c0-29.8,24.2-54,54-54H1026C1055.8,108.1,1080,132.3,1080,162.1z
	 M-0.2,494.5v423.8c0,29.8,24.2,54,54,54H1026c29.8,0,54-24.2,54-54V494.5l-540.1,216L-0.2,494.5z"/>
<path class="st1" d="M902.9,108.1H181.6c-39.4,0-73.8,28.4-73.8,67.3v722.8c0,39.2,34.4,74.1,73.8,74.1h721
	c39.6,0,69.3-35.1,69.3-74.1V175.4C972.2,136.5,942.3,108.1,902.9,108.1z M375.7,828.5H251.9V443.5h123.8V828.5z M318.1,385h-0.9
	c-39.6,0-65.3-29.5-65.3-66.4c0-37.6,26.3-66.4,66.8-66.4s65.3,28.6,66.2,66.4C384.9,355.5,359.2,385,318.1,385z M828.1,828.5H704.3
	V618c0-50.4-18-84.9-62.8-84.9c-34.2,0-54.5,23.1-63.5,45.7c-3.4,8.1-4.3,19.1-4.3,30.4v219.2H450V443.5h123.8v53.6
	c18-25.7,46.2-62.6,111.6-62.6c81.3,0,142.7,53.6,142.7,169.1L828.1,828.5z"/>
<g class="st0">
	<path class="st2" d="M539.9,186c115.4,0,129,0.4,174.6,2.5c42.1,1.9,65,9,80.2,14.9c20.2,7.8,34.6,17.2,49.7,32.3
		c15.1,15.1,24.5,29.5,32.3,49.7c5.9,15.2,13,38.1,14.9,80.2c2.1,45.6,2.5,59.2,2.5,174.6s-0.4,129-2.5,174.6
		c-1.9,42.1-9,65-14.9,80.2c-7.8,20.2-17.2,34.6-32.3,49.7c-15.1,15.1-29.5,24.5-49.7,32.3c-15.2,5.9-38.1,13-80.2,14.9
		c-45.6,2.1-59.2,2.5-174.6,2.5s-129-0.4-174.6-2.5c-42.1-1.9-65-9-80.2-14.9c-20.2-7.8-34.6-17.2-49.7-32.3
		c-15.1-15.1-24.5-29.5-32.3-49.7c-5.9-15.2-13-38.1-14.9-80.2c-2.1-45.6-2.5-59.2-2.5-174.6s0.4-129,2.5-174.6
		c1.9-42.1,9-65,14.9-80.2c7.8-20.2,17.2-34.6,32.3-49.7c15.1-15.1,29.5-24.5,49.7-32.3c15.2-5.9,38.1-13,80.2-14.9
		C410.8,186.4,424.5,186,539.9,186 M539.9,108.1c-117.4,0-132.1,0.5-178.2,2.6c-46,2.1-77.4,9.4-104.9,20.1
		c-28.4,11-52.5,25.8-76.5,49.8s-38.8,48.1-49.8,76.5c-10.7,27.5-18,58.9-20.1,104.9c-2.1,46.1-2.6,60.8-2.6,178.2
		s0.5,132.1,2.6,178.2c2.1,46,9.4,77.4,20.1,104.9c11,28.4,25.8,52.5,49.8,76.5c24,24,48.1,38.8,76.5,49.8
		c27.5,10.7,58.9,18,104.9,20.1c46.1,2.1,60.8,2.6,178.2,2.6s132.1-0.5,178.2-2.6c46-2.1,77.4-9.4,104.9-20.1
		c28.4-11,52.5-25.8,76.5-49.8c24-24,38.8-48.1,49.8-76.5c10.7-27.5,18-58.9,20.1-104.9c2.1-46.1,2.6-60.8,2.6-178.2
		s-0.5-132.1-2.6-178.2c-2.1-46-9.4-77.4-20.1-104.9c-11-28.4-25.8-52.5-49.8-76.5c-24-24-48.1-38.8-76.5-49.8
		c-27.5-10.7-58.9-18-104.9-20.1C671.9,108.6,657.2,108.1,539.9,108.1z M539.9,318.3c-122.5,0-221.9,99.3-221.9,221.9
		s99.3,221.9,221.9,221.9s221.9-99.3,221.9-221.9S662.4,318.3,539.9,318.3z M539.9,684.2c-79.5,0-144-64.5-144-144s64.5-144,144-144
		s144,64.5,144,144S619.4,684.2,539.9,684.2z M822.4,309.6c0,28.6-23.2,51.9-51.9,51.9s-51.9-23.2-51.9-51.9s23.2-51.9,51.9-51.9
		S822.4,280.9,822.4,309.6z"/>
</g>
</svg>
